<svg width="192" height="192" viewBox="0 0 192 192" fill="none" xmlns="http://www.w3.org/2000/svg">
<path d="M96 189.44C147.605 189.44 189.44 147.606 189.44 96C189.44 44.3945 147.605 2.56 96 2.56C44.3945 2.56 2.56 44.3945 2.56 96C2.56 147.606 44.3945 189.44 96 189.44Z" stroke="black" stroke-width="4"/>
<path d="M52.48 112.64H56.64L59.52 111.04L55.36 109.76L61.12 102.72H55.36L59.52 98.88V95.04L47.68 102.72L43.52 100.48V90.88L47.68 84.8L55.36 76.8L61.12 74.24V79.68L66.88 82.24V76.8L76.16 71.36H75.2L78.4 69.12L83.2 70.08L84.16 68.16L78.4 67.2V63.04L83.2 60.48H88L88.64 63.04H94.4V60.48H96.64V64.32L95.68 65.28L96.64 67.2L102.08 70.08L105.28 69.12V66.24L99.52 64.32V60.48H105.28V54.08L99.52 51.84V47.36L94.4 51.84L96 44.16L87.04 42.56L84.48 45.12L87.04 53.12H80.32V58.56H77.44L78.4 49.92H70.4L66.88 47.36L64 42.56L71.68 36.8L83.2 33.6V38.4H88L88.64 36.8H90.88L89.6 34.24L92.16 30.72H94.4L101.44 28.8L102.72 30.72L101.44 33.6L96.64 35.84L105.6 38.4L108.16 34.88L111.68 36.8L112.64 32H108.8V28.8L101.44 25.28H94.4L90.88 27.2V28.8L88 29.76L88.64 24H90.88L94.4 19.84H84.48L82.24 24L84.48 23.36L83.2 27.2H75.84L75.2 28.8L68.16 28.16V23.36L76.16 25.28L78.4 23.36L80.32 22.08L78.4 19.84L76.16 22.08H71.68L69.44 16.32H61.12L55.36 19.84H59.52L57.6 22.08L64 23.36V25.28H55.36L56.64 23.36L52.48 21.12L45.44 19.84H40L23.36 35.84L15.68 47.36L19.2 57.6L31.68 58.88L33.28 61.76L25.28 67.2V76.8L29.44 78.4L25.28 88.64L26.88 95.04L29.44 97.6L31.68 96.64L30.4 89.6L33.28 79.68H35.2L33.28 89.6L35.2 100.48H33.28L35.2 105.6L40.96 107.2V105.6H45.44L43.52 107.2H49.28L52.48 112.64Z" fill="black" stroke="black"/>
<path d="M68.48 172.8L71.36 177.92L75.2 181.44L83.2 181.76L78.72 177.92L81.6 174.72H78.72V171.2L81.6 169.28L80.32 166.72H91.52L99.84 156.8L95.68 151.68L98.24 147.84H102.72L106.88 143.04V132.16L111.68 129.28L106.88 128.32L104 124.16L95.68 126.4L88.64 124.16V119.36L87.04 116.8H81.6L78.72 112.96L74.24 110.08V112.96H68.48L66.24 110.08L60.8 109.12L53.12 116.8L54.08 120.64L50.88 122.24L54.08 129.28L53.12 130.88L57.92 136L56.64 137.92H59.52L65.6 143.04V155.52L67.2 156.8L65.6 162.56L69.44 166.72L68.48 172.8ZM176.96 61.76H183.36L180.48 54.4L172.16 40L156.16 22.08L154.88 24.96L150.08 23.68L146.24 24.96L147.84 26.88H150.08L152 31.36L156.16 30.4V36.48L150.72 34.24L146.24 35.2L142.4 37.44H140.16L135.68 42.24L131.84 40L130.24 45.76L134.08 46.72L133.12 51.2L126.08 49.92L120.64 51.2V58.88L123.52 61.12H133.12L135.68 60.48L134.08 57.28L140.16 46.72L144.32 48L147.84 44.48L150.08 51.2L155.84 55.36H152.64L154.88 59.2L160 58.88V55.36L162.24 54.4L155.84 51.2L152.64 45.76H158.08L164.16 53.12V57.28L168 61.76L170.56 53.12H174.08V58.88L176.96 61.76ZM135.68 38.4L136.96 36.48L135.68 34.56L132.16 28.16V23.36L127.68 24.96V28.16L130.24 29.12L133.76 34.56H130.24V38.4H135.68ZM125.44 35.52L128.96 32.96L127.36 30.72L122.88 32.96V35.52H125.44ZM179.52 75.2H187.2L189.76 88L190.4 106.24L185.28 125.76L179.52 142.72L165.12 160.32H162.88L160.32 155.2L161.6 145.6L158.08 142.72V138.88L162.88 128.96L154.88 115.2L156.8 106.24H149.12L147.52 104.32H144.32L143.36 106.24L136 104.32L138.24 106.24H130.56L125.12 95.04V88.96H127.04L128 83.52L125.12 84.8L123.52 82.24L134.08 75.2L132.8 72L136 68.16L145.6 70.4V68.16H149.12L159.04 65.6L158.08 72H166.4L171.2 75.2L169.28 70.4H176.32L179.52 75.2Z" fill="black" stroke="black"/>
</svg>
