<svg width="512" height="512" viewBox="0 0 512 512" fill="none" xmlns="http://www.w3.org/2000/svg">
<path d="M256 505.173C393.615 505.173 505.173 393.615 505.173 256C505.173 118.385 393.615 6.82667 256 6.82667C118.385 6.82667 6.82666 118.385 6.82666 256C6.82666 393.615 118.385 505.173 256 505.173Z" stroke="black" stroke-width="8"/>
<path d="M139.947 300.373H151.04L158.72 296.107L147.627 292.693L162.987 273.92H147.627L158.72 263.68V253.44L127.147 273.92L116.053 267.947V242.347L127.147 226.133L147.627 204.8L162.987 197.973V212.48L178.347 219.307V204.8L203.093 190.293H200.533L209.067 184.32L221.867 186.88L224.427 181.76L209.067 179.2V168.107L221.867 161.28H234.667L236.373 168.107H251.733V161.28H257.707V171.52L255.147 174.08L257.707 179.2L272.213 186.88L280.747 184.32V176.64L265.387 171.52V161.28H280.747V144.213L265.387 138.24V126.293L251.733 138.24L256 117.76L232.107 113.493L225.28 120.32L232.107 141.653H214.187V156.16H206.507L209.067 133.12H187.733L178.347 126.293L170.667 113.493L191.147 98.1333L221.867 89.6V102.4H234.667L236.373 98.1333H242.347L238.933 91.3067L245.76 81.92H251.733L270.507 76.8L273.92 81.92L270.507 89.6L257.707 95.5733L281.6 102.4L288.427 93.0133L297.813 98.1333L300.373 85.3333H290.133V76.8L270.507 67.4133H251.733L242.347 72.5333V76.8L234.667 79.36L236.373 64H242.347L251.733 52.9067H225.28L219.307 64L225.28 62.2933L221.867 72.5333H202.24L200.533 76.8L181.76 75.0933V62.2933L203.093 67.4133L209.067 62.2933L214.187 58.88L209.067 52.9067L203.093 58.88H191.147L185.173 43.52H162.987L147.627 52.9067H158.72L153.6 58.88L170.667 62.2933V67.4133H147.627L151.04 62.2933L139.947 56.32L121.173 52.9067H106.667L62.2933 95.5733L41.8133 126.293L51.2 153.6L84.48 157.013L88.7467 164.693L67.4133 179.2V204.8L78.5067 209.067L67.4133 236.373L71.68 253.44L78.5067 260.267L84.48 257.707L81.0667 238.933L88.7467 212.48H93.8667L88.7467 238.933L93.8667 267.947H88.7467L93.8667 281.6L109.227 285.867V281.6H121.173L116.053 285.867H131.413L139.947 300.373Z" fill="black" stroke="black"/>
<path d="M182.613 460.8L190.293 474.453L200.533 483.84L221.867 484.693L209.92 474.453L217.6 465.92H209.92V456.533L217.6 451.413L214.187 444.587H244.053L266.24 418.133L255.147 404.48L261.973 394.24H273.92L285.013 381.44V352.427L297.813 344.747L285.013 342.187L277.333 331.093L255.147 337.067L236.373 331.093V318.293L232.107 311.467H217.6L209.92 301.227L197.973 293.547V301.227H182.613L176.64 293.547L162.133 290.987L141.653 311.467L144.213 321.707L135.68 325.973L144.213 344.747L141.653 349.013L154.453 362.667L151.04 367.787H158.72L174.933 381.44V414.72L179.2 418.133L174.933 433.493L185.173 444.587L182.613 460.8ZM471.893 164.693H488.96L481.28 145.067L459.093 106.667L416.427 58.88L413.013 66.56L400.213 63.1467L389.973 66.56L394.24 71.68H400.213L405.333 83.6267L416.427 81.0667V97.28L401.92 91.3067L389.973 93.8667L379.733 99.84H373.76L361.813 112.64L351.573 106.667L347.307 122.027L357.547 124.587L354.987 136.533L336.213 133.12L321.707 136.533V157.013L329.387 162.987H354.987L361.813 161.28L357.547 152.747L373.76 124.587L384.853 128L394.24 118.613L400.213 136.533L415.573 147.627H407.04L413.013 157.867L426.667 157.013V147.627L432.64 145.067L415.573 136.533L407.04 122.027H421.547L437.76 141.653V152.747L448 164.693L454.827 141.653H464.213V157.013L471.893 164.693ZM361.813 102.4L365.227 97.28L361.813 92.16L352.427 75.0933V62.2933L340.48 66.56V75.0933L347.307 77.6533L356.693 92.16H347.307V102.4H361.813ZM334.507 94.72L343.893 87.8933L339.627 81.92L327.68 87.8933V94.72H334.507ZM478.72 200.533H499.2L506.027 234.667L507.733 283.307L494.08 335.36L478.72 380.587L440.32 427.52H434.347L427.52 413.867L430.933 388.267L421.547 380.587V370.347L434.347 343.893L413.013 307.2L418.133 283.307H397.653L393.387 278.187H384.853L382.293 283.307L362.667 278.187L368.64 283.307H348.16L333.653 253.44V237.227H338.773L341.333 222.72L333.653 226.133L329.387 219.307L357.547 200.533L354.133 192L362.667 181.76L388.267 187.733V181.76H397.653L424.107 174.933L421.547 192H443.733L456.533 200.533L451.413 187.733H470.187L478.72 200.533Z" fill="black" stroke="black"/>
</svg>
