<svg xmlns="http://www.w3.org/2000/svg" width="300" height="300" fill="none" stroke="#000" xmlns:v="https://vecta.io/nano"><circle cx="150" cy="150" r="146" stroke-width="8"/><g fill="#000"><path d="M82 176h6.5l4.5-2.5-6.5-2 9-11h-9l6.5-6v-6l-18.5 12L68 157v-15l6.5-9.5 12-12.5 9-4v8.5l9 4V120l14.5-8.5h-1.5l5-3.5 7.5 1.5 1.5-3-9-1.5v-6.5l7.5-4h7.5l1 4h9v-4h3.5v6l-1.5 1.5 1.5 3 8.5 4.5 5-1.5v-4.5l-9-3v-6h9v-10l-9-3.5v-7l-8 7 2.5-12-14-2.5-4 4 4 12.5h-10.5v8.5H121l1.5-13.5H110l-5.5-4-4.5-7.5 12-9 18-5V60h7.5l1-2.5h3.5l-2-4 4-5.5h3.5l11-3 2 3-2 4.5L151 56l14 4 4-5.5 5.5 3L176 50h-6v-5l-11.5-5.5h-11l-5.5 3V45l-4.5 1.5 1-9h3.5l5.5-6.5H132l-3.5 6.5 3.5-1-2 6h-11.5l-1 2.5-11-1v-7.5l12.5 3 3.5-3 3-2-3-3.5-3.5 3.5h-7l-3.5-9h-13l-9 5.5H93l-3 3.5 10 2v3H86.5l2-3L82 33l-11-2h-8.5l-26 25-12 18L30 90l19.5 2 2.5 4.5-12.5 8.5v15l6.5 2.5-6.5 16 2.5 10 4 4 3.5-1.5-2-11 4.5-15.5h3L52 140l3 17h-3l3 8 9 2.5V165h7l-3 2.5h9l5 8.5z"/><path d="M107 270l4.5 8 6 5.5 12.5.5-7-6 4.5-5H123v-5.5l4.5-3-2-4H143l13-15.5-6.5-8 4-6h7l6.5-7.5v-17l7.5-4.5-7.5-1.5-4.5-6.5-13 3.5-11-3.5v-7.5l-2.5-4h-8.5l-4.5-6-7-4.5v4.5h-9l-3.5-4.5-8.5-1.5-12 12 1.5 6-5 2.5 5 11-1.5 2.5 7.5 8-2 3H93l9.5 8V243l2.5 2-2.5 9 6 6.5-1.5 9.5zM276.5 96.5h10L282 85l-13-22.5-25-28-2 4.5-7.5-2-6 2 2.5 3h3.5l3 7 6.5-1.5V57l-8.5-3.5-7 1.5-6 3.5H219l-7 7.5-6-3.5-2.5 9 6 1.5-1.5 7-11-2-8.5 2v12l4.5 3.5h15l4-1-2.5-5L219 73l6.5 2 5.5-5.5 3.5 10.5 9 6.5h-5l3.5 6 8-.5v-5.5l3.5-1.5-10-5-5-8.5h8.5l9.5 11.5v6.5l6 7 4-13.5h5.5v9l4.5 4.5zM212 60l2-3-2-3-5.5-10v-7.5l-7 2.5v5l4 1.5L209 54h-5.5v6h8.5zm-16-4.5l5.5-4L199 48l-7 3.5v4h4zm84.5 62h12l4 20 1 28.5-8 30.5-9 26.5-22.5 27.5h-3.5l-4-8 2-15-5.5-4.5v-6l7.5-15.5L242 180l3-14h-12l-2.5-3h-5l-1.5 3-11.5-3 3.5 3h-12l-8.5-17.5V139h3l1.5-8.5-4.5 2-2.5-4 16.5-11-2-5 5-6 15 3.5v-3.5h5.5l15.5-4-1.5 10h13l7.5 5-3-7.5h11l5 7.5z"/></g></svg>